<svg width="128" height="128" viewBox="0 0 128 128" fill="none" xmlns="http://www.w3.org/2000/svg">
<path d="M127 62C127 73.4394 120.099 83.9149 108.697 91.5755C97.3015 99.232 81.5016 104 64 104C46.4983 104 30.6985 99.232 19.3029 91.5755C7.90094 83.9149 1 73.4394 1 62C1 50.5606 7.90094 40.0851 19.3029 32.4245C30.6985 24.768 46.4983 20 64 20C81.5016 20 97.3015 24.768 108.697 32.4245C120.099 40.0851 127 50.5606 127 62Z" fill="white" stroke="#B51656" stroke-width="2"/>
<path d="M47.9453 58.7386H39.5249C39.5703 57.8523 39.4851 57.0625 39.2692 56.3693C39.0533 55.6648 38.7124 55.0625 38.2465 54.5625C37.7805 54.0511 37.201 53.6648 36.5078 53.4034C35.8146 53.142 35.0078 53.0114 34.0874 53.0114C32.326 53.0114 30.7294 53.4489 29.2976 54.3239C27.8658 55.1989 26.6669 56.4602 25.701 58.108C24.7351 59.7557 24.0589 61.733 23.6726 64.0398C23.3203 66.267 23.326 68.125 23.6896 69.6136C24.0646 71.1023 24.7578 72.2216 25.7692 72.9716C26.7805 73.7102 28.0646 74.0795 29.6214 74.0795C30.6328 74.0795 31.5703 73.9602 32.4339 73.7216C33.3089 73.4716 34.0987 73.1136 34.8033 72.6477C35.5078 72.1818 36.1158 71.6193 36.6271 70.9602C37.1499 70.2898 37.5533 69.5455 37.8374 68.7273H46.326C45.9055 70.2614 45.2124 71.7898 44.2465 73.3125C43.2919 74.8239 42.0874 76.1932 40.6328 77.4205C39.1783 78.6477 37.4908 79.6307 35.5703 80.3693C33.6499 81.108 31.5135 81.4773 29.1612 81.4773C25.9453 81.4773 23.1726 80.7557 20.843 79.3125C18.5249 77.8693 16.8487 75.7784 15.8146 73.0398C14.7919 70.2898 14.5987 66.9602 15.2351 63.0511C15.8601 59.267 17.093 56.0795 18.9339 53.4886C20.7862 50.8977 23.0362 48.9375 25.6839 47.608C28.343 46.2784 31.1783 45.6136 34.1896 45.6136C36.3714 45.6136 38.3317 45.9091 40.0703 46.5C41.8203 47.0795 43.3033 47.9318 44.5192 49.0568C45.7351 50.1705 46.6385 51.5398 47.2294 53.1648C47.8317 54.7898 48.0703 56.6477 47.9453 58.7386ZM62.1996 81H49.1087L54.9041 46.0909H67.603C71.1484 46.0909 74.103 46.8125 76.4666 48.2557C78.8416 49.6875 80.5178 51.7443 81.495 54.4261C82.4837 57.0966 82.6712 60.2784 82.0575 63.9716C81.4666 67.5398 80.2791 70.5966 78.495 73.142C76.7223 75.6875 74.4496 77.6364 71.6768 78.9886C68.9041 80.3295 65.745 81 62.1996 81ZM58.7223 73.8068H62.728C64.6825 73.8068 66.4098 73.4545 67.9098 72.75C69.4212 72.0341 70.6712 70.892 71.6598 69.3239C72.6484 67.7443 73.353 65.6705 73.7734 63.1023C74.1825 60.6477 74.1655 58.7102 73.7223 57.2898C73.2905 55.858 72.4496 54.8352 71.1996 54.2216C69.9609 53.5966 68.3416 53.2841 66.3416 53.2841H62.1484L58.7223 73.8068ZM84.1712 81L89.9666 46.0909H104.387C107.001 46.0909 109.183 46.5625 110.933 47.5057C112.683 48.4375 113.927 49.7784 114.665 51.5284C115.404 53.267 115.575 55.3295 115.177 57.7159C114.79 60.125 113.927 62.1761 112.586 63.8693C111.256 65.5511 109.54 66.8352 107.438 67.7216C105.347 68.608 102.972 69.0511 100.313 69.0511H91.1939L92.3189 62.4034H99.87C101.131 62.4034 102.222 62.2386 103.143 61.9091C104.063 61.5682 104.796 61.0568 105.342 60.375C105.898 59.6818 106.268 58.7955 106.45 57.7159C106.62 56.6364 106.54 55.7443 106.211 55.0398C105.893 54.3239 105.33 53.7898 104.523 53.4375C103.728 53.0739 102.705 52.892 101.455 52.892H97.2962L92.6087 81H84.1712ZM106.467 65.0455L112.518 81H103.313L97.4496 65.0455H106.467Z" fill="#B51656"/>
</svg>
