<svg id="visual" viewBox="0 0 3440 1440" width="3440" height="1440" xmlns="http://www.w3.org/2000/svg" xmlns:xlink="http://www.w3.org/1999/xlink" version="1.1"><path d="M0 586L143.3 665.2C286.7 744.3 573.3 902.7 860 907.3C1146.7 912 1433.3 763 1720 701.8C2006.7 640.7 2293.3 667.3 2580 745.5C2866.7 823.7 3153.3 953.3 3296.7 1018.2L3440 1083L3440 1441L3296.7 1441C3153.3 1441 2866.7 1441 2580 1441C2293.3 1441 2006.7 1441 1720 1441C1433.3 1441 1146.7 1441 860 1441C573.3 1441 286.7 1441 143.3 1441L0 1441Z" fill="#b51656" stroke-linecap="round" stroke-linejoin="miter"></path></svg>